<svg width="32" height="32" viewBox="0 0 32 32" xmlns="http://www.w3.org/2000/svg">
  <!-- 简化版logo用作favicon -->
  <circle cx="16" cy="16" r="14" fill="#007bff" opacity="0.9"/>
  <circle cx="16" cy="16" r="10" fill="none" stroke="#ffffff" stroke-width="1.5" opacity="0.8"/>
  
  <!-- 中心AI图标 -->
  <g transform="translate(16, 16)">
    <!-- 简化的大脑图标 -->
    <path d="M-6,-4 Q-8,-6 -6,-8 Q-2,-10 2,-8 Q6,-6 6,-4 Q8,-2 6,0 Q8,2 6,4 Q2,6 -2,4 Q-6,2 -6,-4 Z" 
          fill="#ffffff" opacity="0.9"/>
    
    <!-- 大脑纹理 -->
    <path d="M-4,-3 Q-2,-5 0,-3 Q2,-5 4,-3" stroke="#007bff" stroke-width="0.8" fill="none"/>
    <path d="M-3,-1 Q-1,-3 1,-1 Q3,-3 5,-1" stroke="#007bff" stroke-width="0.8" fill="none"/>
    <path d="M-4,2 Q-2,0 0,2 Q2,0 4,2" stroke="#007bff" stroke-width="0.8" fill="none"/>
  </g>
  
  <!-- 装饰性光点 -->
  <g fill="#ffffff" opacity="0.7">
    <circle cx="8" cy="16" r="0.8"/>
    <circle cx="24" cy="16" r="0.8"/>
    <circle cx="16" cy="8" r="0.8"/>
    <circle cx="16" cy="24" r="0.8"/>
  </g>
</svg>
