<svg width="100" height="100" viewBox="0 0 100 100" fill="none" xmlns="http://www.w3.org/2000/svg">
  <defs>
    <linearGradient id="ls-grad" x1="0%" y1="0%" x2="100%" y2="100%">
      <stop offset="0%" stop-color="#6366f1" />
      <stop offset="100%" stop-color="#a855f7" />
    </linearGradient>
    <filter id="glow" x="-20%" y="-20%" width="140%" height="140%">
      <feGaussianBlur stdDeviation="2" result="blur" />
      <feComposite in="SourceGraphic" in2="blur" operator="over" />
    </filter>
  </defs>
  
  <circle cx="50" cy="50" r="45" stroke="url(#ls-grad)" stroke-width="1" opacity="0.3" />
  <path d="M50 5 Q70 5 85 20 Q95 35 95 50 Q95 65 85 80 Q70 95 50 95 Q30 95 15 80 Q5 65 5 50 Q5 35 15 20 Q30 5 50 5Z" stroke="url(#ls-grad)" stroke-width="0.5" opacity="0.5" />
  <ellipse cx="50" cy="50" rx="42" ry="15" stroke="url(#ls-grad)" stroke-width="1" transform="rotate(45 50 50)" opacity="0.6" />
  <ellipse cx="50" cy="50" rx="42" ry="15" stroke="url(#ls-grad)" stroke-width="1" transform="rotate(-45 50 50)" opacity="0.6" />
  
  <path d="M40 35 V65 H55" stroke="white" stroke-width="6" stroke-linecap="round" stroke-linejoin="round" filter="url(#glow)" />
  <path d="M62 38 C62 38 52 38 52 48 C52 58 62 58 62 68 C62 78 52 78 52 78" stroke="white" stroke-width="6" stroke-linecap="round" filter="url(#glow)" />
</svg>
